<svg width="39" height="27" viewBox="0 0 39 27" fill="none" xmlns="http://www.w3.org/2000/svg">
<path d="M21.45 7.71429H1.95C0.8775 7.71429 0 8.58214 0 9.64286C0 10.7036 0.8775 11.5714 1.95 11.5714H21.45C22.5225 11.5714 23.4 10.7036 23.4 9.64286C23.4 8.58214 22.5225 7.71429 21.45 7.71429ZM21.45 0H1.95C0.8775 0 0 0.867857 0 1.92857C0 2.98929 0.8775 3.85714 1.95 3.85714H21.45C22.5225 3.85714 23.4 2.98929 23.4 1.92857C23.4 0.867857 22.5225 0 21.45 0ZM31.2 15.4286V9.64286C31.2 8.58214 30.3225 7.71429 29.25 7.71429C28.1775 7.71429 27.3 8.58214 27.3 9.64286V15.4286H21.45C20.3775 15.4286 19.5 16.2964 19.5 17.3571C19.5 18.4179 20.3775 19.2857 21.45 19.2857H27.3V25.0714C27.3 26.1321 28.1775 27 29.25 27C30.3225 27 31.2 26.1321 31.2 25.0714V19.2857H37.05C38.1225 19.2857 39 18.4179 39 17.3571C39 16.2964 38.1225 15.4286 37.05 15.4286H31.2ZM1.95 19.2857H13.65C14.7225 19.2857 15.6 18.4179 15.6 17.3571C15.6 16.2964 14.7225 15.4286 13.65 15.4286H1.95C0.8775 15.4286 0 16.2964 0 17.3571C0 18.4179 0.8775 19.2857 1.95 19.2857Z" fill="white"/>
</svg>
