<svg width="33" height="29" viewBox="0 0 33 29" fill="none" xmlns="http://www.w3.org/2000/svg">
<path d="M24.1003 2.32C24.9582 2.31929 25.8077 2.48719 26.5988 2.81386C27.39 3.14054 28.1069 3.61941 28.7076 4.2224C29.9454 5.4594 30.6392 7.12606 30.6392 8.8624C30.6392 10.5987 29.9454 12.2654 28.7076 13.5024L16.5 25.6708L4.29236 13.5024C3.05461 12.2654 2.3608 10.5987 2.3608 8.8624C2.3608 7.12606 3.05461 5.4594 4.29236 4.2224C4.89342 3.61984 5.61043 3.14122 6.40149 2.8145C7.19255 2.48778 8.04182 2.3195 8.89968 2.3195C9.75755 2.3195 10.6068 2.48778 11.3979 2.8145C12.1889 3.14122 12.9059 3.61984 13.507 4.2224L16.5 7.2384L19.4812 4.2456C20.0801 3.63542 20.7978 3.1504 21.5915 2.81954C22.3851 2.48869 23.2384 2.31879 24.1003 2.32ZM24.1003 3.11211e-06C22.9286 -0.000974444 21.7685 0.228355 20.688 0.674545C19.6075 1.12074 18.6283 1.77481 17.808 2.5984L16.5 3.8976L15.192 2.5984C14.3707 1.77629 13.3913 1.12336 12.311 0.677664C11.2307 0.23197 10.071 0.00243302 8.89968 0.00243302C7.72834 0.00243302 6.56871 0.23197 5.48839 0.677664C4.40808 1.12336 3.42869 1.77629 2.60733 2.5984C0.936292 4.27301 0 6.52658 0 8.874C0 11.2214 0.936292 13.475 2.60733 15.1496L16.5 29L30.3927 15.1496C32.0637 13.475 33 11.2214 33 8.874C33 6.52658 32.0637 4.27301 30.3927 2.5984C29.5715 1.77585 28.5922 1.12247 27.5119 0.676354C26.4316 0.230239 25.2718 0.000320274 24.1003 3.11211e-06Z" fill="white"/>
</svg>
