<svg width="33" height="33" viewBox="0 0 33 33" fill="none" xmlns="http://www.w3.org/2000/svg">
<path d="M0.922514 0.922514C1.51338 0.331828 2.31465 0 3.15014 0C3.98562 0 4.7869 0.331828 5.37776 0.922514L16.519 12.0638L27.6603 0.922514C28.2545 0.348569 29.0504 0.0309849 29.8766 0.0381638C30.7027 0.0453427 31.493 0.37671 32.0771 0.960896C32.6613 1.54508 32.9927 2.33534 32.9999 3.16148C33.0071 3.98761 32.6895 4.78351 32.1155 5.37776L20.9743 16.519L32.1155 27.6603C32.6895 28.2545 33.0071 29.0504 32.9999 29.8766C32.9927 30.7027 32.6613 31.493 32.0771 32.0771C31.493 32.6613 30.7027 32.9927 29.8766 32.9999C29.0504 33.0071 28.2545 32.6895 27.6603 32.1155L16.519 20.9743L5.37776 32.1155C4.78351 32.6895 3.98761 33.0071 3.16148 32.9999C2.33534 32.9927 1.54508 32.6613 0.960896 32.0771C0.37671 31.493 0.0453427 30.7027 0.0381638 29.8766C0.0309849 29.0504 0.348569 28.2545 0.922514 27.6603L12.0638 16.519L0.922514 5.37776C0.331828 4.7869 0 3.98562 0 3.15014C0 2.31465 0.331828 1.51338 0.922514 0.922514Z" fill="#EAEAEA"/>
</svg>
