<svg width="32" height="29" viewBox="0 0 32 29" fill="none" xmlns="http://www.w3.org/2000/svg">
<path d="M30.9974 4.0733C29.6574 1.3233 25.7974 -0.926702 21.3074 0.383298C19.1619 1.00304 17.2899 2.33208 15.9974 4.1533C14.7049 2.33208 12.833 1.00304 10.6874 0.383298C6.18743 -0.906702 2.33743 1.3233 0.997426 4.0733C-0.882574 7.9233 -0.102574 12.2533 3.31743 16.9433C5.99743 20.6133 9.82743 24.3333 15.3874 28.6533C15.5631 28.7903 15.7796 28.8648 16.0024 28.8648C16.2253 28.8648 16.4417 28.7903 16.6174 28.6533C22.1674 24.3433 26.0074 20.6533 28.6874 16.9433C32.0974 12.2533 32.8774 7.9233 30.9974 4.0733Z" fill="#6B6B6B"/>
</svg>
