<svg width="40" height="38" viewBox="0 0 40 38" fill="none" xmlns="http://www.w3.org/2000/svg">
<path d="M39.1705 18.6949L22.1223 1.55561L20.9796 0.406184C20.7192 0.146016 20.3671 0 20.0001 0C19.6331 0 19.281 0.146016 19.0206 0.406184L0.829651 18.6949C0.562858 18.9623 0.352008 19.2806 0.209545 19.6312C0.0670819 19.9819 -0.00410599 20.3576 0.000182879 20.7364C0.0178311 22.2986 1.31057 23.5456 2.86361 23.5456H4.73874V38H35.2614V23.5456H37.1763C37.9307 23.5456 38.6411 23.2483 39.1749 22.7113C39.4378 22.4477 39.6461 22.1343 39.7877 21.7892C39.9293 21.4441 40.0015 21.0742 40 20.7009C40 19.9464 39.7044 19.2319 39.1705 18.6949ZM22.4708 34.8047H17.5293V25.7513H22.4708V34.8047ZM32.0847 20.3503V34.8047H25.2946V24.6862C25.2946 23.7054 24.5048 22.911 23.5297 22.911H16.4704C15.4954 22.911 14.7056 23.7054 14.7056 24.6862V34.8047H7.91543V20.3503H3.67985L20.0045 3.94322L21.0237 4.96839L36.3247 20.3503H32.0847Z" fill="#6B6B6B"/>
</svg>
