<svg width="40" height="40" viewBox="0 0 40 40" fill="none" xmlns="http://www.w3.org/2000/svg">
<path d="M35.81 30.2326H32.6072C32.3886 30.2326 32.1835 30.3302 32.0469 30.5023C31.728 30.8977 31.3863 31.2791 31.0264 31.6419C29.5543 33.1462 27.8107 34.345 25.8919 35.1721C23.904 36.0293 21.7674 36.4691 19.6094 36.4651C17.4271 36.4651 15.3132 36.0279 13.3269 35.1721C11.4081 34.345 9.66446 33.1462 8.19243 31.6419C6.71777 30.1426 5.54192 28.3656 4.72999 26.4093C3.88716 24.3814 3.46346 22.2279 3.46346 20C3.46346 17.7721 3.89171 15.6186 4.72999 13.5907C5.54093 11.6326 6.70723 9.86982 8.19243 8.3582C9.67764 6.84657 11.4043 5.65587 13.3269 4.82797C15.3132 3.97216 17.4271 3.53495 19.6094 3.53495C21.7917 3.53495 23.9056 3.96751 25.8919 4.82797C27.8145 5.65587 29.5412 6.84657 31.0264 8.3582C31.3863 8.72564 31.7234 9.10703 32.0469 9.49773C32.1835 9.66982 32.3931 9.76749 32.6072 9.76749H35.81C36.097 9.76749 36.2747 9.44191 36.1152 9.1954C32.6209 3.65123 26.507 -0.0185342 19.5593 7.04123e-05C8.64346 0.0279773 -0.108327 9.07447 0.00101347 20.2047C0.110354 31.1582 8.84848 40 19.6094 40C26.5389 40 32.6255 36.3349 36.1152 30.8047C36.2701 30.5582 36.097 30.2326 35.81 30.2326ZM39.8602 19.707L33.3954 14.4977C33.1539 14.3024 32.8031 14.4791 32.8031 14.7907V18.3256H18.4978C18.2973 18.3256 18.1333 18.4931 18.1333 18.6977V21.3024C18.1333 21.507 18.2973 21.6745 18.4978 21.6745H32.8031V25.2093C32.8031 25.521 33.1585 25.6977 33.3954 25.5024L39.8602 20.2931C39.9037 20.2583 39.939 20.2138 39.9632 20.163C39.9874 20.1122 40 20.0565 40 20C40 19.9436 39.9874 19.8878 39.9632 19.8371C39.939 19.7863 39.9037 19.7418 39.8602 19.707V19.707Z" fill="#888888"/>
</svg>
