<svg width="26" height="26" viewBox="0 0 26 26" fill="none" xmlns="http://www.w3.org/2000/svg">
<path d="M13.0833 1C6.40971 1 1 6.40971 1 13.0833C1 19.757 6.40971 25.1667 13.0833 25.1667C19.757 25.1667 25.1667 19.757 25.1667 13.0833C25.1667 6.40971 19.757 1 13.0833 1Z" stroke="black" stroke-width="1.5" stroke-linecap="round" stroke-linejoin="round"/>
<path d="M3.74414 20.7514C3.74414 20.7514 6.43752 17.3125 13.0833 17.3125C19.7292 17.3125 22.4238 20.7514 22.4238 20.7514" stroke="black" stroke-width="1.5" stroke-linecap="round" stroke-linejoin="round"/>
<path d="M13.0834 13.0835C14.0448 13.0835 14.9668 12.7016 15.6466 12.0218C16.3265 11.3419 16.7084 10.4199 16.7084 9.4585C16.7084 8.49709 16.3265 7.57505 15.6466 6.89523C14.9668 6.21541 14.0448 5.8335 13.0834 5.8335C12.122 5.8335 11.1999 6.21541 10.5201 6.89523C9.84029 7.57505 9.45837 8.49709 9.45837 9.4585C9.45837 10.4199 9.84029 11.3419 10.5201 12.0218C11.1999 12.7016 12.122 13.0835 13.0834 13.0835V13.0835Z" stroke="black" stroke-width="1.5" stroke-linecap="round" stroke-linejoin="round"/>
</svg>
