<svg width="40" height="40" viewBox="0 0 40 40" fill="none" xmlns="http://www.w3.org/2000/svg">
<path d="M36.1779 21.0888V20V18.8969L39.003 16.4901C39.5238 16.0432 39.8655 15.4314 39.9678 14.7629C40.0702 14.0944 39.9265 13.4122 39.5622 12.8369L36.0896 7.10636C35.8316 6.67121 35.4606 6.30979 35.0138 6.05834C34.567 5.80688 34.0601 5.67424 33.5441 5.67373C33.2243 5.67134 32.9062 5.71973 32.6024 5.81699L29.0268 6.99175C28.4095 6.59234 27.7656 6.23339 27.0993 5.91728L26.3489 2.30706C26.2143 1.64748 25.8458 1.055 25.3078 0.633321C24.7698 0.211644 24.0966 -0.0123581 23.406 0.000526391H16.5198C15.8293 -0.0123581 15.1561 0.211644 14.6181 0.633321C14.0801 1.055 13.7115 1.64748 13.577 2.30706L12.8266 5.91728C12.1555 6.23331 11.5067 6.59226 10.8843 6.99175L7.38233 5.75969C7.07524 5.68179 6.75723 5.65276 6.44063 5.67373C5.92456 5.67424 5.41771 5.80688 4.97092 6.05834C4.52413 6.30979 4.15311 6.67121 3.89508 7.10636L0.422541 12.8369C0.0790938 13.4113 -0.0485298 14.0842 0.0615284 14.7402C0.171587 15.3962 0.512479 15.9946 1.02582 16.4328L3.80679 18.9112V21.1031L1.02582 23.5099C0.497979 23.9512 0.147762 24.5602 0.0373227 25.229C-0.0731169 25.8978 0.0633627 26.583 0.422541 27.1631L3.89508 32.8936C4.15311 33.3288 4.52413 33.6902 4.97092 33.9417C5.41771 34.1931 5.92456 34.3258 6.44063 34.3263C6.76044 34.3287 7.07851 34.2803 7.38233 34.183L10.9579 33.0083C11.5752 33.4077 12.2191 33.7666 12.8854 34.0827L13.6358 37.6929C13.7704 38.3525 14.1389 38.945 14.6769 39.3667C15.2149 39.7884 15.8881 40.0124 16.5787 39.9995H23.5237C24.2143 40.0124 24.8875 39.7884 25.4255 39.3667C25.9635 38.945 26.332 38.3525 26.4666 37.6929L27.217 34.0827C27.8881 33.7667 28.5369 33.4077 29.1593 33.0083L32.7201 34.183C33.0239 34.2803 33.342 34.3287 33.6618 34.3263C34.1779 34.3258 34.6847 34.1931 35.1315 33.9417C35.5783 33.6902 35.9493 33.3288 36.2073 32.8936L39.5622 27.1631C39.9056 26.5887 40.0332 25.9158 39.9232 25.2598C39.8131 24.6038 39.4722 24.0054 38.9589 23.5672L36.1779 21.0888ZM33.5441 31.461L28.4971 29.7992C27.3157 30.7735 25.9654 31.5351 24.5096 32.0484L23.4649 37.1915H16.5198L15.4751 32.1057C14.0308 31.5779 12.6878 30.8176 11.5023 29.8565L6.44063 31.461L2.96809 25.7305L6.97033 22.2922C6.69827 20.8092 6.69827 19.2911 6.97033 17.8081L2.96809 14.2695L6.44063 8.53898L11.4876 10.2008C12.669 9.22649 14.0193 8.46485 15.4751 7.95161L16.5198 2.80848H23.4649L24.5096 7.8943C25.9539 8.42211 27.2969 9.18244 28.4824 10.1435L33.5441 8.53898L37.0166 14.2695L33.0144 17.7078C33.2864 19.1908 33.2864 20.709 33.0144 22.1919L37.0166 25.7305L33.5441 31.461Z" fill="#6B6B6B"/>
<path d="M19.9926 28.5959C18.2464 28.5959 16.5395 28.0918 15.0877 27.1472C13.6359 26.2027 12.5043 24.8602 11.8361 23.2896C11.1679 21.7189 10.9931 19.9906 11.3337 18.3232C11.6744 16.6558 12.5152 15.1241 13.7499 13.922C14.9846 12.7199 16.5576 11.9012 18.2702 11.5695C19.9828 11.2379 21.7579 11.4081 23.3711 12.0587C24.9843 12.7093 26.3631 13.811 27.3332 15.2246C28.3033 16.6381 28.821 18.3 28.821 20.0001C28.8328 21.1321 28.6125 22.2551 28.1731 23.3031C27.7336 24.3512 27.0837 25.3034 26.2615 26.1039C25.4394 26.9044 24.4614 27.5371 23.385 27.965C22.3085 28.3929 21.1552 28.6074 19.9926 28.5959ZM19.9926 14.2696C19.2147 14.252 18.4412 14.3881 17.7189 14.6699C16.9967 14.9516 16.3406 15.3731 15.7904 15.9088C15.2402 16.4444 14.8074 17.0832 14.518 17.7865C14.2286 18.4897 14.0888 19.2428 14.1069 20.0001C14.0888 20.7575 14.2286 21.5106 14.518 22.2138C14.8074 22.917 15.2402 23.5558 15.7904 24.0915C16.3406 24.6272 16.9967 25.0486 17.7189 25.3304C18.4412 25.6121 19.2147 25.7483 19.9926 25.7306C20.7704 25.7483 21.5439 25.6121 22.2662 25.3304C22.9884 25.0486 23.6445 24.6272 24.1947 24.0915C24.7449 23.5558 25.1777 22.917 25.4671 22.2138C25.7565 21.5106 25.8963 20.7575 25.8782 20.0001C25.8963 19.2428 25.7565 18.4897 25.4671 17.7865C25.1777 17.0832 24.7449 16.4444 24.1947 15.9088C23.6445 15.3731 22.9884 14.9516 22.2662 14.6699C21.5439 14.3881 20.7704 14.252 19.9926 14.2696Z" fill="#6B6B6B"/>
</svg>
