<svg width="15" height="16" viewBox="0 0 15 16" fill="none" xmlns="http://www.w3.org/2000/svg">
<path fill-rule="evenodd" clip-rule="evenodd" d="M10.9977 2.46517V1.64345C10.9977 1.20758 10.8321 0.789562 10.5375 0.481355C10.2429 0.173149 9.84326 0 9.42657 0H4.71329C4.29661 0 3.89699 0.173149 3.60236 0.481355C3.30772 0.789562 3.14219 1.20758 3.14219 1.64345V2.46517H0.785548C0.577208 2.46517 0.3774 2.55175 0.230082 2.70585C0.0827628 2.85996 0 3.06896 0 3.2869C0 3.50483 0.0827628 3.71384 0.230082 3.86795C0.3774 4.02205 0.577208 4.10862 0.785548 4.10862H1.5711V13.1476C1.5711 13.8014 1.81938 14.4284 2.26134 14.8907C2.7033 15.353 3.30272 15.6128 3.92774 15.6128H10.2121C10.8371 15.6128 11.4366 15.353 11.8785 14.8907C12.3205 14.4284 12.5688 13.8014 12.5688 13.1476V4.10862H13.3543C13.5627 4.10862 13.7625 4.02205 13.9098 3.86795C14.0571 3.71384 14.1399 3.50483 14.1399 3.2869C14.1399 3.06896 14.0571 2.85996 13.9098 2.70585C13.7625 2.55175 13.5627 2.46517 13.3543 2.46517H10.9977ZM9.42657 1.64345H4.71329V2.46517H9.42657V1.64345ZM10.9977 4.10862H3.14219V13.1476C3.14219 13.3655 3.22495 13.5745 3.37227 13.7286C3.51959 13.8827 3.7194 13.9693 3.92774 13.9693H10.2121C10.4205 13.9693 10.6203 13.8827 10.7676 13.7286C10.9149 13.5745 10.9977 13.3655 10.9977 13.1476V4.10862Z" fill="white"/>
<path d="M4.71338 5.75232H6.28447V12.3261H4.71338V5.75232Z" fill="white"/>
<path d="M7.85547 5.75232H9.42656V12.3261H7.85547V5.75232Z" fill="white"/>
</svg>
